<svg xmlns="http://www.w3.org/2000/svg" version="1.1" xmlns:xlink="http://www.w3.org/1999/xlink" xmlns:svgjs="http://svgjs.dev/svgjs" width="1000" height="1000" viewBox="0 0 1000 1000"><rect width="1000" height="1000" fill="#000000"></rect><g transform="matrix(0.7,0,0,0.7,149.57575757575756,421.5896911509733)"><svg viewBox="0 0 396 89" data-background-color="#ffffff" preserveAspectRatio="xMidYMid meet" height="224" width="1000" xmlns="http://www.w3.org/2000/svg" xmlns:xlink="http://www.w3.org/1999/xlink"><defs></defs><g id="tight-bounds" transform="matrix(1,0,0,1,0.2400000000000091,0.005851323746014714)"><svg viewBox="0 0 395.52 88.98829735250794" height="88.98829735250794" width="395.52"><g><svg viewBox="0 0 565.412435446348 127.2125048854807" height="88.98829735250794" width="395.52"><g transform="matrix(1,0,0,1,169.89243544634806,17.58146775190074)"><svg viewBox="0 0 395.5199999999999 92.04956938167922" height="92.04956938167922" width="395.5199999999999"><g><svg viewBox="0 0 395.5199999999999 92.04956938167922" height="92.04956938167922" width="395.5199999999999"><g><svg viewBox="0 0 395.5199999999999 49.64713926596279" height="49.64713926596279" width="395.5199999999999"><g transform="matrix(1,0,0,1,0,0)"><svg width="395.5199999999999" viewBox="4.7 -37.1 298.33 37.45" height="49.64713926596279" data-palette-color="#003e5c"><path d="M11.2-5.45L30.95-5.45 30.95 0 4.7 0 4.7-35 30.25-35 30.25-29.55 11.2-29.55 11.2-20.45 28.1-20.45 28.1-15.1 11.2-15.1 11.2-5.45ZM37.6 0L37.6-37.1 43.85-37.1 43.85 0 37.6 0ZM71.95-37.1L78.2-37.1 78.2 0 72.2 0 72.2-3.45Q70.65-1.55 68.37-0.6 66.1 0.35 63.35 0.35L63.35 0.35Q59.5 0.35 56.42-1.35 53.35-3.05 51.6-6.18 49.85-9.3 49.85-13.35L49.85-13.35Q49.85-17.4 51.6-20.5 53.35-23.6 56.42-25.3 59.5-27 63.35-27L63.35-27Q66-27 68.2-26.1 70.4-25.2 71.95-23.4L71.95-23.4 71.95-37.1ZM64.1-5Q66.35-5 68.15-6.03 69.95-7.05 71-8.95 72.05-10.85 72.05-13.35L72.05-13.35Q72.05-15.85 71-17.75 69.95-19.65 68.15-20.68 66.35-21.7 64.1-21.7L64.1-21.7Q61.85-21.7 60.05-20.68 58.25-19.65 57.2-17.75 56.15-15.85 56.15-13.35L56.15-13.35Q56.15-10.85 57.2-8.95 58.25-7.05 60.05-6.03 61.85-5 64.1-5L64.1-5ZM111.49-13.2Q111.49-12.55 111.39-11.35L111.39-11.35 90.44-11.35Q90.99-8.4 93.32-6.68 95.64-4.95 99.09-4.95L99.09-4.95Q103.49-4.95 106.34-7.85L106.34-7.85 109.69-4Q107.89-1.85 105.14-0.75 102.39 0.35 98.94 0.35L98.94 0.35Q94.54 0.35 91.19-1.4 87.84-3.15 86.02-6.28 84.19-9.4 84.19-13.35L84.19-13.35Q84.19-17.25 85.97-20.38 87.74-23.5 90.89-25.25 94.04-27 97.99-27L97.99-27Q101.89-27 104.97-25.28 108.04-23.55 109.77-20.43 111.49-17.3 111.49-13.2L111.49-13.2ZM97.99-22Q94.99-22 92.92-20.23 90.84-18.45 90.39-15.5L90.39-15.5 105.54-15.5Q105.14-18.4 103.09-20.2 101.04-22 97.99-22L97.99-22ZM123.44-22.8Q126.14-27 132.94-27L132.94-27 132.94-21.05Q132.14-21.2 131.49-21.2L131.49-21.2Q127.84-21.2 125.79-19.07 123.74-16.95 123.74-12.95L123.74-12.95 123.74 0 117.49 0 117.49-26.7 123.44-26.7 123.44-22.8ZM177.49-35L183.99-35 183.99 0 177.49 0 177.49-15 159.39-15 159.39 0 152.89 0 152.89-35 159.39-35 159.39-20.55 177.49-20.55 177.49-35ZM204.78 0.35Q200.73 0.35 197.48-1.4 194.23-3.15 192.41-6.28 190.58-9.4 190.58-13.35L190.58-13.35Q190.58-17.3 192.41-20.4 194.23-23.5 197.48-25.25 200.73-27 204.78-27L204.78-27Q208.88-27 212.13-25.25 215.38-23.5 217.21-20.4 219.03-17.3 219.03-13.35L219.03-13.35Q219.03-9.4 217.21-6.28 215.38-3.15 212.13-1.4 208.88 0.35 204.78 0.35L204.78 0.35ZM204.78-5Q208.23-5 210.48-7.3 212.73-9.6 212.73-13.35L212.73-13.35Q212.73-17.1 210.48-19.4 208.23-21.7 204.78-21.7L204.78-21.7Q201.33-21.7 199.11-19.4 196.88-17.1 196.88-13.35L196.88-13.35Q196.88-9.6 199.11-7.3 201.33-5 204.78-5L204.78-5ZM258.73-27Q263.78-27 266.73-24.08 269.68-21.15 269.68-15.3L269.68-15.3 269.68 0 263.43 0 263.43-14.5Q263.43-18 261.88-19.78 260.33-21.55 257.43-21.55L257.43-21.55Q254.28-21.55 252.38-19.48 250.48-17.4 250.48-13.55L250.48-13.55 250.48 0 244.23 0 244.23-14.5Q244.23-18 242.68-19.78 241.13-21.55 238.23-21.55L238.23-21.55Q235.03-21.55 233.16-19.5 231.28-17.45 231.28-13.55L231.28-13.55 231.28 0 225.03 0 225.03-26.7 230.98-26.7 230.98-23.3Q232.48-25.1 234.73-26.05 236.98-27 239.73-27L239.73-27Q242.73-27 245.06-25.88 247.38-24.75 248.73-22.55L248.73-22.55Q250.38-24.65 252.98-25.83 255.58-27 258.73-27L258.73-27ZM303.03-13.2Q303.03-12.55 302.93-11.35L302.93-11.35 281.98-11.35Q282.53-8.4 284.85-6.68 287.18-4.95 290.63-4.95L290.63-4.95Q295.03-4.95 297.88-7.85L297.88-7.85 301.23-4Q299.43-1.85 296.68-0.75 293.93 0.35 290.48 0.35L290.48 0.35Q286.08 0.35 282.73-1.4 279.38-3.15 277.55-6.28 275.73-9.4 275.73-13.35L275.73-13.35Q275.73-17.25 277.5-20.38 279.28-23.5 282.43-25.25 285.58-27 289.53-27L289.53-27Q293.43-27 296.5-25.28 299.58-23.55 301.3-20.43 303.03-17.3 303.03-13.2L303.03-13.2ZM289.53-22Q286.53-22 284.45-20.23 282.38-18.45 281.93-15.5L281.93-15.5 297.08-15.5Q296.68-18.4 294.63-20.2 292.58-22 289.53-22L289.53-22Z" opacity="1" transform="matrix(1,0,0,1,0,0)" fill="#ffffff" class="undefined-text-0" data-fill-palette-color="primary" id="text-0"></path></svg></g></svg></g><g transform="matrix(1,0,0,1,0,61.36763731531423)"><svg viewBox="0 0 395.5199999999999 30.681932066365004" height="30.681932066365004" width="395.5199999999999"><g transform="matrix(1,0,0,1,0,0)"><svg width="395.5199999999999" viewBox="2.5 -35.45 578.8 44.900000000000006" height="30.681932066365004" data-palette-color="#003e5c"><path d="M12.05-12.05L12.05-0.7Q12.05 0.1 7.3 0.1L7.3 0.1Q2.5 0.1 2.5-0.65L2.5-0.65 2.5-33.25Q2.5-35 4.35-35L4.35-35 13.9-35Q27.05-35 27.05-24.75L27.05-24.75Q27.05-21.65 25.85-19.13 24.65-16.6 22.45-15.1L22.45-15.1 28.75-4.6Q28.35-3.4 26.15-1.85L26.15-1.85Q23.15 0.3 21.2 0.3 19.25 0.3 18.3-1.1L18.3-1.1 13.6-12.05 12.05-12.05ZM13.1-26.15L12.05-26.15 12.05-18.65 12.3-18.65Q17.05-18.65 17.05-22.6L17.05-22.6Q17.05-24.4 16.13-25.28 15.2-26.15 13.1-26.15L13.1-26.15ZM56.26-1.35L56.26-1.35Q53.11 0.5 48.16 0.5 43.21 0.5 39.81-2.88 36.41-6.25 36.41-12.23 36.41-18.2 39.68-21.85 42.96-25.5 47.96-25.5 52.96-25.5 55.68-22.95 58.41-20.4 58.41-16.75L58.41-16.75Q58.41-8.65 49.11-8.65L49.11-8.65 45.66-8.65Q45.66-7.15 46.48-6.58 47.31-6 48.91-6L48.91-6Q52.41-6 55.56-7.6L55.56-7.6Q55.61-7.65 56.01-6.9L56.01-6.9Q57.21-4.75 57.21-3.28 57.21-1.8 56.26-1.35ZM50.01-15.8L50.01-15.8Q50.01-17.9 47.96-17.9L47.96-17.9Q47.01-17.9 46.33-17.32 45.66-16.75 45.66-15.65L45.66-15.65 45.66-14.1 48.36-14.1Q50.01-14.1 50.01-15.8ZM68.32-9L68.32-9Q72.37-6.55 74.72-6.55L74.72-6.55Q76.22-6.55 76.22-7.6L76.22-7.6Q76.22-8.35 73.62-9.55L73.62-9.55Q67.37-12.1 67.37-17.9L67.37-17.9Q67.37-21.6 70.07-23.55 72.77-25.5 76.54-25.5 80.32-25.5 82.94-24.7 85.57-23.9 85.57-22.6L85.57-22.6Q85.57-21.5 84.49-19.7 83.42-17.9 83.02-17.75L83.02-17.75Q80.87-18.95 78.37-18.95L78.37-18.95Q77.02-18.95 77.02-18L77.02-18Q77.02-17.4 77.54-16.98 78.07-16.55 79.47-15.93 80.87-15.3 81.79-14.8 82.72-14.3 83.87-13.4L83.87-13.4Q86.27-11.5 86.27-8.45L86.27-8.45Q86.27-4.45 83.62-1.98 80.97 0.5 75.62 0.5L75.62 0.5Q72.07 0.5 69.17-0.7 66.27-1.9 66.27-4L66.27-4Q66.27-5.4 66.94-6.95 67.62-8.5 68.32-9ZM104.52-24.85L104.52-0.3Q104.52 0.1 99.95 0.1 95.37 0.1 95.37-0.25L95.37-0.25 95.37-24.8Q95.37-25.15 99.95-25.15 104.52-25.15 104.52-24.85L104.52-24.85ZM104.52-35.15L104.52-27.8Q104.52-27.45 99.95-27.45 95.37-27.45 95.37-27.75L95.37-27.75 95.37-34.95Q95.37-35.45 99.95-35.45 104.52-35.45 104.52-35.15L104.52-35.15ZM127.28-25.2L127.28-34.7Q127.28-35.45 131.23-35.45L131.23-35.45Q132.58-35.45 134.36-35.27 136.13-35.1 136.13-34.8L136.13-34.8 136.13-8.45 137.88-8.45Q139.13-8.45 139.53-6.2L139.53-6.2Q139.63-5.55 139.63-4.42 139.63-3.3 138.93-1.7L138.93-1.7Q137.93 0.5 135.73 0.5L135.73 0.5Q134.08 0.5 132.81-0.15 131.53-0.8 131.08-1.5L131.08-1.5 130.63-2.15Q127.88 0.5 123.73 0.5 119.58 0.5 116.63-2.95 113.68-6.4 113.68-12.58 113.68-18.75 116.78-22.13 119.88-25.5 124.53-25.5L124.53-25.5Q125.88-25.5 127.28-25.2L127.28-25.2ZM125.63-17.5L125.63-17.5Q122.83-17.5 122.83-12.45L122.83-12.45Q122.83-9.9 123.63-8.78 124.43-7.65 125.41-7.65 126.38-7.65 127.28-8.5L127.28-8.5 127.28-17Q126.43-17.5 125.63-17.5ZM167.39-1.35L167.39-1.35Q164.24 0.5 159.29 0.5 154.34 0.5 150.94-2.88 147.54-6.25 147.54-12.23 147.54-18.2 150.81-21.85 154.09-25.5 159.09-25.5 164.09-25.5 166.81-22.95 169.54-20.4 169.54-16.75L169.54-16.75Q169.54-8.65 160.24-8.65L160.24-8.65 156.79-8.65Q156.79-7.15 157.61-6.58 158.44-6 160.04-6L160.04-6Q163.54-6 166.69-7.6L166.69-7.6Q166.74-7.65 167.14-6.9L167.14-6.9Q168.34-4.75 168.34-3.28 168.34-1.8 167.39-1.35ZM161.14-15.8L161.14-15.8Q161.14-17.9 159.09-17.9L159.09-17.9Q158.14-17.9 157.46-17.32 156.79-16.75 156.79-15.65L156.79-15.65 156.79-14.1 159.49-14.1Q161.14-14.1 161.14-15.8ZM188.85-16.35L188.85-0.3Q188.85 0.05 185.25 0.05L185.25 0.05Q180.25-0.1 180.25-0.5L180.25-0.5 180.25-16.7 178.95-16.7Q177.65-16.7 177.25-18.9L177.25-18.9Q177.15-19.55 177.15-20.2L177.15-20.2Q177.15-21.75 177.75-23.3L177.75-23.3Q178.65-25.5 180.55-25.5 182.45-25.5 183.95-24.6 185.45-23.7 185.95-22.8L185.95-22.8Q189.1-25.5 193.45-25.5 197.8-25.5 199.75-23.15 201.7-20.8 201.7-15.45L201.7-15.45 201.7-0.45Q201.7 0.15 197.42 0.15 193.15 0.15 193.15-0.45L193.15-0.45 193.15-14.9Q193.15-17.4 191.4-17.4L191.4-17.4Q190.9-17.4 190-16.98 189.1-16.55 188.85-16.35L188.85-16.35ZM220.2-17.3L211.45-17Q211.1-17 211.1-19.15L211.1-19.15Q211.1-25 212.05-25L212.05-25 228-25Q228.35-25 229.55-22.8 230.75-20.6 230.75-20.33 230.75-20.05 230.7-20L230.7-20 221-7.8 229.7-8.4Q230.5-8.4 230.5-4.85L230.5-4.85Q230.5-3.5 230.25-1.75 230 0 229.4 0L229.4 0 213.4 0Q212.65 0 211.6-2.5 210.55-5 210.55-5.53 210.55-6.05 210.65-6.15L210.65-6.15 220.2-17.3ZM258.76-1.35L258.76-1.35Q255.61 0.5 250.66 0.5 245.71 0.5 242.31-2.88 238.91-6.25 238.91-12.23 238.91-18.2 242.19-21.85 245.46-25.5 250.46-25.5 255.46-25.5 258.19-22.95 260.91-20.4 260.91-16.75L260.91-16.75Q260.91-8.65 251.61-8.65L251.61-8.65 248.16-8.65Q248.16-7.15 248.99-6.58 249.81-6 251.41-6L251.41-6Q254.91-6 258.06-7.6L258.06-7.6Q258.11-7.65 258.51-6.9L258.51-6.9Q259.71-4.75 259.71-3.28 259.71-1.8 258.76-1.35ZM252.51-15.8L252.51-15.8Q252.51-17.9 250.46-17.9L250.46-17.9Q249.51-17.9 248.84-17.32 248.16-16.75 248.16-15.65L248.16-15.65 248.16-14.1 250.86-14.1Q252.51-14.1 252.51-15.8ZM295.53 0L295.53 9.1Q295.53 9.45 291.25 9.45 286.98 9.45 286.98 9.1L286.98 9.1 286.98-16.65 285.28-16.65Q284.08-16.65 283.63-18.85L283.63-18.85Q283.48-19.55 283.48-20.65 283.48-21.75 284.18-23.25L284.18-23.25Q285.18-25.45 287.38-25.45L287.38-25.45Q288.83-25.45 290.05-24.78 291.28-24.1 291.75-23.53 292.23-22.95 292.23-22.85L292.23-22.85Q295.58-25.45 299.48-25.45 303.38-25.45 306.18-22.43 308.98-19.4 308.98-13.08 308.98-6.75 306.18-3.28 303.38 0.2 299.08 0.2L299.08 0.2Q297.13 0.2 295.53 0L295.53 0ZM297.58-16.7L297.58-16.7Q296.73-16.7 295.93-16.15L295.93-16.15 295.93-7.3Q296.78-7.2 297.3-7.2 297.83-7.2 298.13-7.2L298.13-7.2Q300.18-7.4 300.18-12.45L300.18-12.45Q300.18-16.7 297.58-16.7ZM337.04-1.35L337.04-1.35Q333.89 0.5 328.94 0.5 323.99 0.5 320.59-2.88 317.19-6.25 317.19-12.23 317.19-18.2 320.46-21.85 323.74-25.5 328.74-25.5 333.74-25.5 336.46-22.95 339.19-20.4 339.19-16.75L339.19-16.75Q339.19-8.65 329.89-8.65L329.89-8.65 326.44-8.65Q326.44-7.15 327.26-6.58 328.09-6 329.69-6L329.69-6Q333.19-6 336.34-7.6L336.34-7.6Q336.39-7.65 336.79-6.9L336.79-6.9Q337.99-4.75 337.99-3.28 337.99-1.8 337.04-1.35ZM330.79-15.8L330.79-15.8Q330.79-17.9 328.74-17.9L328.74-17.9Q327.79-17.9 327.11-17.32 326.44-16.75 326.44-15.65L326.44-15.65 326.44-14.1 329.14-14.1Q330.79-14.1 330.79-15.8ZM358.99-14L358.99-0.05Q358.99 0.3 354.44 0.3L354.44 0.3Q349.89 0.2 349.89-0.1L349.89-0.1 349.89-16.7 348.54-16.7Q347.74-16.7 347.27-17.68 346.79-18.65 346.79-20.1L346.79-20.1Q346.79-25.5 349.99-25.5L349.99-25.5Q352.24-25.5 353.74-24.13 355.24-22.75 355.24-21L355.24-21Q356.29-23.05 358.07-24.28 359.84-25.5 361.69-25.5L361.69-25.5Q364.59-25.5 365.19-24L365.19-24Q365.34-23.6 365.34-22.83 365.34-22.05 364.87-20.05 364.39-18.05 363.89-17.15 363.39-16.25 363.29-16.25 363.19-16.25 362.37-16.63 361.54-17 360.89-17L360.89-17Q358.99-17 358.99-14L358.99-14ZM412.21 0.1L412.21 0.1Q407.86 0.1 407.51-1.3L407.51-1.3 405.86-7.75 397.91-7.75 396.46-1.55Q396.16 0 391.66 0L391.66 0Q389.26 0 388.11-0.28 386.96-0.55 386.96-0.7L386.96-0.7 395.81-34.55Q395.81-34.95 402.66-34.95 409.51-34.95 409.51-34.55L409.51-34.55 418.16-0.65Q418.16-0.3 415.86-0.1 413.56 0.1 412.21 0.1ZM401.86-24.45L399.16-14.1 404.41-14.1 402.16-24.45 401.86-24.45ZM437.27-16.35L437.27-0.3Q437.27 0.05 433.67 0.05L433.67 0.05Q428.67-0.1 428.67-0.5L428.67-0.5 428.67-16.7 427.37-16.7Q426.07-16.7 425.67-18.9L425.67-18.9Q425.57-19.55 425.57-20.2L425.57-20.2Q425.57-21.75 426.17-23.3L426.17-23.3Q427.07-25.5 428.97-25.5 430.87-25.5 432.37-24.6 433.87-23.7 434.37-22.8L434.37-22.8Q437.52-25.5 441.87-25.5 446.22-25.5 448.17-23.15 450.12-20.8 450.12-15.45L450.12-15.45 450.12-0.45Q450.12 0.15 445.84 0.15 441.57 0.15 441.57-0.45L441.57-0.45 441.57-14.9Q441.57-17.4 439.82-17.4L439.82-17.4Q439.32-17.4 438.42-16.98 437.52-16.55 437.27-16.35L437.27-16.35ZM468.62-17.3L459.87-17Q459.52-17 459.52-19.15L459.52-19.15Q459.52-25 460.47-25L460.47-25 476.42-25Q476.77-25 477.97-22.8 479.17-20.6 479.17-20.33 479.17-20.05 479.12-20L479.12-20 469.42-7.8 478.12-8.4Q478.92-8.4 478.92-4.85L478.92-4.85Q478.92-3.5 478.67-1.75 478.42 0 477.82 0L477.82 0 461.82 0Q461.07 0 460.02-2.5 458.97-5 458.97-5.53 458.97-6.05 459.07-6.15L459.07-6.15 468.62-17.3ZM497.43-24.85L497.43-0.3Q497.43 0.1 492.86 0.1 488.28 0.1 488.28-0.25L488.28-0.25 488.28-24.8Q488.28-25.15 492.86-25.15 497.43-25.15 497.43-24.85L497.43-24.85ZM497.43-35.15L497.43-27.8Q497.43-27.45 492.86-27.45 488.28-27.45 488.28-27.75L488.28-27.75 488.28-34.95Q488.28-35.45 492.86-35.45 497.43-35.45 497.43-35.15L497.43-35.15ZM510.69-18.15L510.69-18.15Q509.29-20.65 509.29-22.23 509.29-23.8 510.14-24.25L510.14-24.25Q512.99-25.5 517.96-25.5 522.94-25.5 524.99-23.18 527.04-20.85 527.04-16.3L527.04-16.3 527.04-8.4 528.74-8.4Q529.59-8.4 530.06-7.4 530.54-6.4 530.54-4.65 530.54-2.9 529.66-1.2 528.79 0.5 527.29 0.5L527.29 0.5Q524.59 0.5 522.94-0.95L522.94-0.95Q522.19-1.55 521.79-2.4L521.79-2.4Q519.49 0.5 514.64 0.5L514.64 0.5Q510.99 0.5 508.49-2.1 505.99-4.7 505.99-8.25L505.99-8.25Q505.99-16.4 515.74-16.4L515.74-16.4 518.49-16.4 518.49-16.9Q518.49-18.2 518.06-18.57 517.64-18.95 516.09-18.95L516.09-18.95Q514.19-18.95 510.69-18.15ZM514.69-8.95L514.69-8.95Q514.69-7.85 515.29-7.28 515.89-6.7 516.81-6.7 517.74-6.7 518.49-7.45L518.49-7.45 518.49-11.3 517.09-11.3Q514.69-11.3 514.69-8.95ZM549.45-16.35L549.45-0.3Q549.45 0.05 545.85 0.05L545.85 0.05Q540.85-0.1 540.85-0.5L540.85-0.5 540.85-16.7 539.55-16.7Q538.25-16.7 537.85-18.9L537.85-18.9Q537.75-19.55 537.75-20.2L537.75-20.2Q537.75-21.75 538.35-23.3L538.35-23.3Q539.25-25.5 541.15-25.5 543.05-25.5 544.55-24.6 546.05-23.7 546.55-22.8L546.55-22.8Q549.7-25.5 554.05-25.5 558.4-25.5 560.35-23.15 562.3-20.8 562.3-15.45L562.3-15.45 562.3-0.45Q562.3 0.15 558.02 0.15 553.75 0.15 553.75-0.45L553.75-0.45 553.75-14.9Q553.75-17.4 552-17.4L552-17.4Q551.5-17.4 550.6-16.98 549.7-16.55 549.45-16.35L549.45-16.35ZM581.3-24.85L581.3-0.3Q581.3 0.1 576.73 0.1 572.15 0.1 572.15-0.25L572.15-0.25 572.15-24.8Q572.15-25.15 576.73-25.15 581.3-25.15 581.3-24.85L581.3-24.85ZM581.3-35.15L581.3-27.8Q581.3-27.45 576.73-27.45 572.15-27.45 572.15-27.75L572.15-27.75 572.15-34.95Q572.15-35.45 576.73-35.45 581.3-35.45 581.3-35.15L581.3-35.15Z" opacity="1" transform="matrix(1,0,0,1,0,0)" fill="#ffffff" class="undefined-text-1" data-fill-palette-color="secondary" id="text-1"></path></svg></g></svg></g></svg></g></svg></g><g><svg viewBox="0 0 158.17193739699664 127.2125048854807" height="127.2125048854807" width="158.17193739699664"><g><svg xmlns="http://www.w3.org/2000/svg" xmlns:xlink="http://www.w3.org/1999/xlink" version="1.1" x="0" y="0" viewBox="0 9.786 100.00034525285244 80.42699999999999" enable-background="new 0 0 100 100" xml:space="preserve" width="158.17193739699664" height="127.2125048854807" class="icon-icon-0" data-fill-palette-color="accent" id="icon-0"><path d="M49.942 52.994c13.552-0.488 27.103-0.977 40.653-1.465-2.527-4.177-3.159-7.831-7.989-8.461-7.229-0.94-14.458-1.883-21.688-2.826-14.023-1.827-28.05-3.654-42.075-5.48C20.101 36.792 39.724 53.361 49.942 52.994z" fill="#ffffff" data-fill-palette-color="accent"></path><path d="M0 9.786c4.391 7.257 26.615 23.072 32.953 23.886 17.33 2.231 34.657 4.46 51.986 6.688-3.393-5.607-4.18-9.35-10.312-10.959-8.904-2.341-17.812-4.683-26.717-7.023C31.94 18.182 15.97 13.984 0 9.786z" fill="#ffffff" data-fill-palette-color="accent"></path><path d="M63.108 66.207c10.413-2.219 20.826-4.439 31.241-6.66-2.028-3.346-2.034-5.359-5.827-5.189-6.158 0.273-12.314 0.549-18.471 0.822-11.343 0.506-22.686 1.014-34.028 1.518C37.298 58.064 54.94 67.947 63.108 66.207z" fill="#ffffff" data-fill-palette-color="accent"></path><path d="M87.682 90.213c5.725-3.719 7.262-7.721 10.519-13.807 3.651-6.824 1.257-7.844-2.821-14.596-0.417-0.688-5.842 0.232-6.453 0.904-0.745 0.818-0.248 5.455-0.294 6.496C88.315 76.211 87.998 83.213 87.682 90.213z" fill="#ffffff" data-fill-palette-color="accent"></path><path d="M86.35 63.447c-3.795 0.809-8.604 0.191-9.572 4.229-1.373 5.736-2.746 11.475-4.12 17.211C81.904 82.678 86.028 71.582 86.35 63.447z" fill="#ffffff" data-fill-palette-color="accent"></path><path d="M74.666 66.121c-9.148 1.953-8.956 4.611-12.879 13.18C68.007 78.711 73.811 71.941 74.666 66.121z" fill="#ffffff" data-fill-palette-color="accent"></path></svg><g></g></g></svg></g></svg></g></svg><rect width="395.52" height="88.98829735250794" fill="none" stroke="none" visibility="hidden"></rect></g></svg></g></svg>